<svg fill="none" height="22" viewBox="0 0 22 22" width="22" xmlns="http://www.w3.org/2000/svg"><path d="m21.1716.830392c-.1534-.153336-.3478-.259073-.5598-.304481-.2121-.045407-.4328-.02855-.6355.048543l-18.7514 7.097346h-.00375c-.21621.08315-.401472.23102-.530494.42341-.129021.19239-.195508.41992-.19038.65151s.081621.45595.219033.64244c.137411.18648.329041.32601.548711.39951l.01922.0061 6.43594 2.74823c.12553.0382.25886.0427.38668.0131.12782-.0295.24566-.092.34176-.1813l10.32938-9.62488c.0308-.03078.0673-.05519.1075-.07185.0402-.01665.0833-.02523.1269-.02523.0435 0 .0866.00858.1268.02523.0402.01666.0768.04107.1075.07185.0308.03078.0552.06732.0719.10754.0166.04021.0252.08331.0252.12684s-.0086.08663-.0252.12684c-.0167.04022-.0411.07675-.0719.10753l-9.62527 10.32473c-.08931.0961-.15185.2139-.18138.3417-.02952.1278-.02501.2612.0131.3867l2.74925 6.4397c.0028.0094.0056.0178.0089.0267.15.4345.5297.7411.9886.7617h.0468c.2317.0013.4584-.0671.6507-.1963s.3412-.3133.4275-.5284l7.0964-18.74621c.0782-.20284.0959-.42399.0511-.6367-.0449-.21272-.1504-.407882-.3038-.561898z" fill="#000"/></svg>