<svg fill="none" height="21" viewBox="0 0 20 21" width="20" xmlns="http://www.w3.org/2000/svg" xmlns:xlink="http://www.w3.org/1999/xlink"><clipPath id="a"><path d="m0 .147217h20v20h-20z"/></clipPath><g clip-path="url(#a)"><path d="m19.5829 5.56962c-.1133-.40398-.3339-.76971-.6384-1.05834-.3131-.29749-.6968-.5103-1.115-.61833-1.565-.4125-7.83496-.4125-7.83496-.4125-2.61389-.02974-5.22714.10106-7.825.39167-.41818.11601-.8012.33357-1.115.63333-.308336.29667-.531669.6625-.648336 1.06333-.280255 1.50979-.4164229 3.04279-.40666624 4.57832-.00999996 1.5342.12583324 3.0667.40666624 4.5784.114167.3991.336667.7633.645836 1.0575.30916.2941.69416.5066 1.1175.6191 1.58583.4117 7.825.4117 7.825.4117 2.61726.0298 5.23376-.101 7.83496-.3917.4182-.108.8019-.3208 1.115-.6183.3044-.2886.5248-.6544.6375-1.0583.2876-1.5093.4274-3.0429.4175-4.5792.0217-1.54285-.118-3.08371-.4166-4.59752zm-11.5817 7.43088v-5.70588l5.2167 2.85338z" fill="#121"/></g></svg>